<svg width="168" height="32" viewBox="0 0 168 32" fill="none" xmlns="http://www.w3.org/2000/svg">
<g clip-path="url(#clip0_411_644)">
<path d="M0.310059 7.25512V0.995117H30.4601V7.25512H23.8301V3.95512H18.7401V30.9951H12.0601V7.25512L15.2901 3.95512H6.93006V7.25512H0.310059Z" fill="#3A3A3A" stroke="#3A3A3A" stroke-width="0.21" stroke-miterlimit="10"/>
<path d="M33.5698 0.995117H63.6798V21.3051C58.8998 21.5551 54.0298 21.9851 49.3398 22.9351C49.2998 22.9751 49.2098 22.9751 49.1298 22.9751C44.3898 23.9951 41.7298 25.1951 40.2498 26.0951V30.9851H33.6198V0.995117H33.5698ZM40.2498 22.6751C43.2998 21.1751 48.4698 19.6251 57.0498 18.8251V4.29512H40.2498V22.6851V22.6751Z" fill="#3A3A3A" stroke="#3A3A3A" stroke-width="0.21" stroke-miterlimit="10"/>
<path d="M98.17 0.995117V30.9951H68.02V0.995117H98.17ZM94.85 4.29512H74.65V24.4051L71.33 27.7051H91.53V7.59512L94.85 4.29512Z" fill="#3A3A3A" stroke="#3A3A3A" stroke-width="0.21" stroke-miterlimit="10"/>
<path d="M102.48 1.03516H132.63V30.9852H126V4.38516H109.16V30.9952H102.48V1.03516Z" fill="#3A3A3A" stroke="#3A3A3A" stroke-width="0.21" stroke-miterlimit="10"/>
<path d="M136.94 14.2851H140.61C151.8 14.0751 157.67 12.3151 160.47 10.6451V4.29512H143.59V7.59512H136.96V0.995117H167.15L167.11 30.9951H160.48V24.9551C157.37 28.0351 152.17 29.7951 143.6 30.3151V30.9951H136.97V14.2851H136.94ZM143.57 27.3151C154.08 26.7251 158.57 24.3251 160.45 19.6051V13.9951C156.66 15.7851 150.97 16.8251 143.57 17.1651V27.3251V27.3151Z" fill="#3A3A3A" stroke="#3A3A3A" stroke-width="0.21" stroke-miterlimit="10"/>
<path d="M9.5499 21.5552L0.149902 30.9152" stroke="#3A3A3A" stroke-width="0.42" stroke-miterlimit="10"/>
<path d="M9.5499 17.9453L0.149902 27.2953" stroke="#3A3A3A" stroke-width="0.42" stroke-miterlimit="10"/>
<path d="M30.5797 21.5552L21.1797 30.9152" stroke="#3A3A3A" stroke-width="0.42" stroke-miterlimit="10"/>
<path d="M30.5797 17.9551L21.1797 27.3051" stroke="#3A3A3A" stroke-width="0.42" stroke-miterlimit="10"/>
<path d="M90.88 23.9251L88.79 7.45508L83.8 20.5351L83.6 20.7651L81.27 18.4051L80.99 18.1251L75.29 23.8951" stroke="#3A3A3A" stroke-width="0.42" stroke-miterlimit="10"/>
<path d="M42.3101 26.9952C43.7801 26.4052 45.3801 25.8352 47.0901 25.3252C53.3001 23.4952 58.9901 23.0752 63.5701 23.1852" stroke="#3A3A3A" stroke-width="0.42" stroke-miterlimit="10"/>
<path d="M42.71 28.9151C44.2 28.3251 45.8 27.7551 47.53 27.2451C53.8 25.4151 59.53 24.9951 64.15 25.1051" stroke="#3A3A3A" stroke-width="0.42" stroke-miterlimit="10"/>
<path d="M124.74 20.6752V6.18521V6.09521L110.18 6.15522" stroke="#3A3A3A" stroke-width="0.42" stroke-miterlimit="10"/>
<path d="M123.08 22.5353V8.03531V7.94531L110.83 7.99531" stroke="#3A3A3A" stroke-width="0.42" stroke-miterlimit="10"/>
<path d="M144.76 18.5551C146.62 18.4151 148.2 18.2351 149.39 18.1051C151.96 17.7851 153.82 17.5451 156.18 16.8751C157.34 16.5451 158.3 16.2051 158.95 15.9551" stroke="#3A3A3A" stroke-width="0.42" stroke-miterlimit="10"/>
<path d="M145.26 26.1553C146.87 25.9753 148.22 25.7253 149.24 25.5153C150.77 25.1753 152.45 24.7953 154.46 23.8553C155.33 23.4553 155.97 23.1453 156.75 22.5553C158.16 21.4853 158.96 20.2453 159.4 19.4253" stroke="#3A3A3A" stroke-width="0.42" stroke-miterlimit="10"/>
</g>
<defs>
<clipPath id="clip0_411_644">
<rect width="167.25" height="30.21" fill="white" transform="translate(0 0.89502)"/>
</clipPath>
</defs>
</svg>
